<?xml version="1.0" standalone="no"?>
<!DOCTYPE svg PUBLIC "-//W3C//DTD SVG 20010904//EN"
 "http://www.w3.org/TR/2001/REC-SVG-20010904/DTD/svg10.dtd">
<svg version="1.0" xmlns="http://www.w3.org/2000/svg"
 width="1177.000000pt" height="321.000000pt" viewBox="0 0 1177.000000 321.000000"
 preserveAspectRatio="xMidYMid meet">
<metadata>
Created by potrace 1.15, written by Peter Selinger 2001-2017
</metadata>
<g transform="translate(0.000000,321.000000) scale(0.100000,-0.100000)"
fill="#000000" stroke="none">
<path d="M0 1605 l0 -1605 5885 0 5885 0 0 1605 0 1605 -5885 0 -5885 0 0
-1605z m4740 1210 c358 -80 646 -311 761 -610 33 -84 69 -237 69 -293 l0 -32
-256 2 -256 3 -25 85 c-33 116 -66 173 -148 256 -85 85 -182 137 -298 159
-403 76 -702 -182 -767 -662 -17 -126 -8 -379 19 -495 61 -266 199 -443 410
-526 60 -24 79 -26 211 -27 116 0 156 4 200 19 194 66 329 205 377 389 l18 67
259 0 259 0 -7 -61 c-30 -265 -189 -519 -427 -678 -338 -227 -885 -252 -1264
-58 -322 166 -526 472 -591 886 -20 127 -23 437 -6 556 19 126 61 282 102 377
103 240 287 437 515 550 107 54 182 75 385 112 61 11 388 -2 460 -19z m-3519
-917 c196 -496 361 -903 365 -905 5 -1 169 403 365 900 l357 902 311 3 311 2
0 -1265 0 -1265 -240 0 -240 0 0 852 c0 469 -4 848 -8 843 -5 -6 -161 -389
-347 -853 l-339 -842 -170 2 -171 3 -340 847 c-187 466 -343 848 -347 848 -5
0 -8 -382 -8 -850 l0 -850 -235 0 -235 0 0 1265 0 1265 308 0 307 0 356 -902z
m6239 -12 c0 -594 -4 -942 -11 -993 -30 -220 -135 -405 -294 -519 -173 -123
-396 -175 -657 -152 -137 11 -241 38 -342 87 -243 118 -393 345 -413 624 l-6
87 259 -2 259 -3 7 -53 c18 -125 92 -219 204 -262 49 -18 73 -21 139 -17 44 2
99 11 122 19 108 39 175 138 193 288 6 52 10 418 10 947 l0 863 265 0 265 0 0
-914z m2362 867 c8 -27 138 -472 289 -990 151 -519 276 -943 279 -943 3 0 128
424 279 943 151 518 281 963 289 990 l14 47 289 0 c250 0 290 -2 287 -15 -2
-8 -192 -577 -423 -1265 l-420 -1250 -322 0 -321 0 -17 48 c-9 26 -201 595
-425 1265 l-409 1217 299 0 298 0 14 -47z m-762 -1458 l0 -225 -580 0 -580 0
0 225 0 225 580 0 580 0 0 -225z"/>
</g>
</svg>
